<?xml version="1.0" encoding="UTF-8" standalone="no"?>
<!-- Created with Inkscape (http://www.inkscape.org/) -->

<svg
   width="280"
   height="55"
   viewBox="0 0 74.083332 14.552083"
   version="1.1"
   id="svg1"
   xmlns="http://www.w3.org/2000/svg"
   xmlns:svg="http://www.w3.org/2000/svg">
  <defs
     id="defs1">
    <rect
       x="85.344002"
       y="15.464175"
       width="194.65601"
       height="64.535828"
       id="rect4" />
    <rect
       x="87.866486"
       y="37.837242"
       width="182.45959"
       height="29.87602"
       id="rect3" />
    <rect
       x="78.617386"
       y="37.837242"
       width="187.08415"
       height="24.384001"
       id="rect2" />
  </defs>
  <g
     id="layer1">
    <g
       transform="matrix(-0.00318523,-9.2003733e-4,9.2003733e-4,-0.00318523,13.162678,14.981392)"
       fill="#000000"
       stroke="none"
       id="g2">
      <path
         d="m 3728,3330 c -16,-22 -30,-30 -54,-30 -47,0 -215,-45 -286,-76 -78,-35 -180,-102 -278,-185 -123,-103 -229,-165 -359,-211 -129,-45 -392,-73 -583,-63 l -127,7 -18,37 c -11,21 -31,42 -50,51 -30,14 -33,19 -33,65 0,59 -25,115 -60,132 -38,19 -422,18 -459,-1 -36,-19 -51,-55 -51,-126 0,-46 -3,-60 -15,-60 -8,0 -29,-13 -47,-29 l -33,-29 -3,-119 c -3,-105 -1,-122 18,-151 11,-18 34,-38 50,-44 l 30,-10 V 2012 1536 L 981,1145 C 525,687 535,702 535,540 c 0,-93 3,-112 27,-162 49,-106 150,-183 271,-208 75,-15 152,-5 229,32 56,26 109,76 453,419 l 391,389 h 470 470 l 11,-29 c 18,-49 55,-65 162,-69 124,-5 169,9 196,61 l 20,37 h 68 c 62,0 71,3 98,29 l 29,29 v 220 c 0,206 -1,221 -20,245 -23,30 -74,47 -137,47 -30,0 -43,4 -43,14 0,7 -10,26 -22,41 -19,24 -22,41 -22,109 0,160 71,307 190,395 35,25 130,80 210,121 274,139 406,234 527,376 49,58 77,84 93,84 29,0 41,16 59,85 76,293 -133,555 -442,555 -69,0 -73,-1 -95,-30 z m 271,-117 c 61,-31 81,-48 113,-93 50,-72 74,-165 61,-241 l -9,-54 -54,3 c -101,5 -98,2 -93,79 3,57 0,74 -19,108 -28,49 -96,86 -162,88 -52,2 -51,0 -35,95 l 11,64 57,-6 c 35,-4 83,-20 130,-43 z m -303,-29 c -3,-9 -6,-19 -6,-24 0,-4 -21,-11 -47,-15 -139,-20 -274,-88 -413,-206 -278,-237 -499,-315 -915,-326 -220,-5 -278,2 -283,34 l -3,22 178,-6 c 137,-4 209,-2 312,11 289,37 440,107 712,329 95,78 228,146 339,176 96,25 134,27 126,5 z m -10,-161 c 10,-14 33,-19 109,-23 80,-5 100,-9 111,-25 19,-26 17,-65 -6,-120 -11,-26 -20,-57 -20,-69 0,-53 -155,-164 -432,-311 -254,-134 -349,-217 -432,-374 -58,-111 -77,-184 -83,-311 l -6,-115 -31,-20 c -18,-12 -35,-34 -41,-54 l -10,-34 -305,6 c -168,4 -371,7 -452,7 h -148 v 453 l 1,452 37,17 c 32,15 54,16 177,8 234,-15 493,12 667,70 163,55 304,135 453,260 136,113 190,145 310,181 77,23 85,23 101,2 z M 1830,2920 v -50 h -52 c -29,0 -110,3 -180,7 l -128,6 v 37 c 0,20 3,40 7,43 3,4 84,7 180,7 h 173 z m 100,-240 v -90 h -275 -275 v 90 90 h 275 275 z m 2120,40 c 0,-17 -172,-170 -250,-222 -47,-30 -159,-95 -250,-143 -91,-48 -193,-107 -227,-131 -143,-102 -229,-266 -240,-462 -6,-87 -7,-93 -27,-90 -19,3 -21,11 -24,69 -7,152 64,335 173,444 78,80 118,106 326,216 211,111 300,170 397,264 59,56 80,71 99,67 12,-2 23,-8 23,-12 z M 1830,2025 c 0,-490 2,-508 52,-537 18,-10 128,-14 493,-18 l 470,-5 3,-177 2,-177 -495,-3 -495,-3 -117,-117 -118,-118 -193,193 -192,192 86,85 c 47,47 99,103 115,124 l 29,39 v 489 488 h 180 180 z m 1300,-730 v -275 h -90 -90 v 275 275 h 90 90 z m 200,-7 v -183 l -50,3 -50,4 v 172 c 0,95 3,176 7,179 3,4 26,7 50,7 h 43 z M 1355,990 c 104,-104 186,-192 183,-196 -6,-5 -309,227 -408,313 l -25,21 24,26 c 14,14 27,26 30,26 4,0 91,-85 196,-190 z m -92,-124 198,-156 -28,-24 c -15,-14 -32,-21 -38,-17 -21,17 -410,324 -415,328 -3,3 8,16 24,29 25,22 30,23 45,11 9,-8 105,-84 214,-171 z M 1113,759 c 111,-89 206,-166 211,-170 12,-10 -21,-49 -41,-49 -7,0 -108,75 -224,167 l -210,167 28,23 c 15,12 29,22 31,23 1,0 94,-73 205,-161 z M 977,644 C 1233,441 1210,466 1175,430 L 1146,399 953,592 C 789,756 751,800 776,800 c 2,0 93,-70 201,-156 z m 73,-334 c -35,-27 -106,-50 -156,-50 -99,0 -212,75 -249,163 -34,83 -26,179 22,251 l 25,39 192,-192 191,-192 z"
         id="path1" />
    </g>
    <path
       style="fill:none;stroke:#ed99da;stroke-width:0.740833;stroke-linecap:round;stroke-dasharray:none;stroke-opacity:1"
       d="m 15.127006,2.6671959 c -0.937075,2.9303274 0.75506,6.241737 0,9.4822731"
       id="path2" />
    <text
       xml:space="preserve"
       transform="scale(0.26458333)"
       id="text2"
       style="font-weight:300;font-size:26.6667px;font-family:Helvetica;-inkscape-font-specification:'Helvetica, Light';white-space:pre;shape-inside:url(#rect2);fill:#000000;stroke:#ed99da;stroke-width:0;stroke-linecap:round;stroke-dasharray:none;stroke-opacity:1"><tspan
         x="78.617188"
         y="86.504407"
         id="tspan5"><tspan
           dx="0 11.440037 4.8000145 4.6933556 11.333324 13.013374 7.7333679 13.386703 10.746681 9.1466904 13.333351 17.120026 10.746674 4.8000107 4.8000183 4.6933594 7.7333679 9.1466827 4.6933594 10.373337"
           style="font-weight:normal;font-family:'Note this';-inkscape-font-specification:'Note this';stroke:#000000"
           id="tspan1">Slingshot Ballistics</tspan></tspan></text>
    <text
       xml:space="preserve"
       transform="scale(0.26458333)"
       id="text3"
       style="font-style:normal;font-variant:normal;font-weight:normal;font-stretch:normal;font-size:26.6667px;font-family:'Note this';-inkscape-font-specification:'Note this';white-space:pre;shape-inside:url(#rect3);fill:#000000;stroke:#000000;stroke-width:0;stroke-linecap:round;stroke-dasharray:none;stroke-opacity:1"><tspan
         x="87.867188"
         y="91.996594"
         id="tspan7"><tspan
           dx="0 11.440037 4.8000145 4.6933556 11.333324 13.013374 7.7333679 13.386703 10.746681 9.1466904 13.333351 17.120026 10.746674 4.8000107 4.8000183 4.6933594 7.7333679 9.1466827 4.6933594 10.373337"
           id="tspan6">Slingshot Ballistics</tspan></tspan></text>
    <text
       xml:space="preserve"
       transform="matrix(0.29456762,0,0,0.29685103,-6.7918154,-2.4991307)"
       id="text4"
       style="font-style:normal;font-variant:normal;font-weight:normal;font-stretch:normal;font-size:26.6667px;font-family:'Note this';-inkscape-font-specification:'Note this';white-space:pre;shape-inside:url(#rect4);fill:#000000;stroke:#000000;stroke-width:1;stroke-linecap:round;stroke-dasharray:none;stroke-opacity:1"><tspan
         x="85.34375"
         y="39.748547"
         id="tspan8">Slingshot Ballistics</tspan></text>
  </g>
</svg>
